Coordinates
version=1
nRows=17
nColumns=40
inDegrees=yes

Units are S.I. units (second, meters, Newtons, ...)
If the header above contains a line with 'inDegrees', this indicates whether rotational values are in degrees (yes) or radians (no).

endheader
time	pelvis_tilt	pelvis_list	pelvis_rotation	pelvis_tx	pelvis_ty	pelvis_tz	hip_flexion_r	hip_adduction_r	hip_rotation_r	knee_angle_r	knee_angle_r_beta	ankle_angle_r	subtalar_angle_r	mtp_angle_r	hip_flexion_l	hip_adduction_l	hip_rotation_l	knee_angle_l	knee_angle_l_beta	ankle_angle_l	subtalar_angle_l	mtp_angle_l	lumbar_extension	lumbar_bending	lumbar_rotation	arm_flex_r	arm_add_r	arm_rot_r	elbow_flex_r	pro_sup_r	wrist_flex_r	wrist_dev_r	arm_flex_l	arm_add_l	arm_rot_l	elbow_flex_l	pro_sup_l	wrist_flex_l	wrist_dev_l
      0.95000000	     -4.72027342	    -10.20867845	     89.73262034	      0.19233663	      0.88332091	      0.36802290	     39.97716560	     -2.20774478	      4.87864652	      1.74894468	      0.03052484	      8.61283638	     -0.00000000	      0.00000000	    -12.22805541	      9.14545600	     12.92974469	     -4.52970387	     -0.07905825	     10.96953501	      0.00000000	      0.00000000	      3.85849367	     -6.34405104	     -2.57807817	      0.00000000	      0.00000000	      0.00000000	      0.00000000	      0.00000000	      0.00000000	      0.00000000	      0.00000000	      0.00000000	      0.00000000	      0.00000000	      0.00000000	      0.00000000	      0.00000000
      0.96000000	     -4.74695817	    -10.37736228	     89.76321108	      0.19284916	      0.87996531	      0.34794019	     40.27654138	     -1.95955947	      5.35588463	      1.47515309	      0.02574628	      8.76008487	      0.00000000	      0.00000000	    -13.06356608	      9.09491161	     12.87700054	     -3.81457410	     -0.06657688	     10.82358189	      0.00000000	      0.00000000	      4.25036731	     -6.43188927	     -2.64983480	      0.00000000	      0.00000000	      0.00000000	      0.00000000	      0.00000000	      0.00000000	      0.00000000	      0.00000000	      0.00000000	      0.00000000	      0.00000000	      0.00000000	      0.00000000	      0.00000000
      0.97000000	     -4.61035242	    -10.28868756	     89.76846408	      0.19358245	      0.87749020	      0.32752026	     40.28972606	     -1.47190251	      5.81990843	      2.09148612	      0.03650332	      8.77156841	      0.00000000	      0.00000000	    -13.91752509	      8.89097943	     12.32520106	     -2.65988938	     -0.04642383	     10.50550591	      0.00000000	      0.00000000	      4.35137304	     -6.33419259	     -2.48084355	      0.00000000	      0.00000000	      0.00000000	      0.00000000	      0.00000000	      0.00000000	      0.00000000	      0.00000000	      0.00000000	      0.00000000	      0.00000000	      0.00000000	      0.00000000	      0.00000000
      0.98000000	     -4.44427304	    -10.29412649	     89.77707286	      0.19424249	      0.87539730	      0.30690456	     40.50697818	     -0.94520139	      5.33177166	      3.58334219	      0.06254112	      8.32194362	      0.00000000	      0.00000000	    -14.40875261	      8.66434774	     11.61893388	     -1.08535044	     -0.01894294	      9.78148186	      0.00000000	     -0.00000000	      4.60402740	     -6.19545316	     -2.36674568	      0.00000000	      0.00000000	      0.00000000	      0.00000000	      0.00000000	      0.00000000	     -0.00000000	      0.00000000	     -0.00000000	     -0.00000000	      0.00000000	      0.00000000	     -0.00000000	      0.00000000
      0.99000000	     -4.17210348	    -10.35584626	     89.78546933	      0.19487426	      0.87376720	      0.28612068	     40.77961750	     -0.34321079	      4.45136379	      5.57230071	      0.09725499	      7.39896597	      0.00000000	      0.00000000	    -14.47901194	      8.32849886	     10.44381212	      1.03111174	      0.01799629	      8.63722077	      0.00000000	      0.00000000	      4.95187805	     -5.91647379	     -2.16288547	      0.00000000	      0.00000000	      0.00000000	      0.00000000	      0.00000000	      0.00000000	      0.00000000	      0.00000000	      0.00000000	      0.00000000	      0.00000000	      0.00000000	      0.00000000	      0.00000000
      1.00000000	     -3.91482673	    -10.34018448	     89.79167239	      0.19542092	      0.87282122	      0.26518180	     40.90697613	      0.17921454	      3.57541604	      7.74951842	      0.13525461	      5.75178969	      0.00000000	      0.00000000	    -14.31649525	      7.97058868	      9.15000633	      3.58698024	      0.06260462	      6.96829677	      0.00000000	      0.00000000	      5.22727049	     -5.63086693	     -1.99408936	      0.00000000	      0.00000000	      0.00000000	      0.00000000	      0.00000000	      0.00000000	      0.00000000	      0.00000000	      0.00000000	      0.00000000	      0.00000000	      0.00000000	      0.00000000	      0.00000000
      1.01000000	     -3.55020484	    -10.53050167	     89.78973614	      0.19607177	      0.87222094	      0.24427371	     41.12723870	      0.76547898	      3.00442252	      9.81979776	      0.17138780	      3.45118727	      0.00000000	      0.00000000	    -13.39864545	      7.41898151	      7.19438664	      6.92936081	      0.12094016	      4.78212628	      0.00000000	      0.00000000	      5.76909941	     -5.24437066	     -1.73832322	      0.00000000	      0.00000000	      0.00000000	      0.00000000	      0.00000000	      0.00000000	      0.00000000	      0.00000000	      0.00000000	      0.00000000	      0.00000000	      0.00000000	      0.00000000	      0.00000000
      1.02000000	     -3.15591599	    -10.39067257	     89.78915933	      0.19664171	      0.87269582	      0.22326630	     40.94155782	      1.28036317	      2.39614473	     11.84933342	      0.20680988	      0.84761599	      0.00000000	      0.00000000	    -12.56875819	      6.74166866	      5.44603833	     10.54684676	      0.18407720	      1.78165209	      0.00000000	      0.00000000	      5.90503712	     -4.81224097	     -1.48338555	      0.00000000	      0.00000000	      0.00000000	      0.00000000	      0.00000000	      0.00000000	      0.00000000	      0.00000000	      0.00000000	      0.00000000	      0.00000000	      0.00000000	      0.00000000	      0.00000000
      1.03000000	     -2.56697892	    -10.56203286	     89.78729001	      0.19737710	      0.87336226	      0.20244993	     40.93546556	      1.97599206	      2.19696772	     13.61719406	      0.23766487	     -1.77620925	      0.00000000	      0.00000000	    -10.82323864	      5.68603465	      3.18274570	     15.00850849	      0.26194789	     -1.72009171	      0.00000000	      0.00000000	      6.42096985	     -4.16492333	     -1.16120311	      0.00000000	      0.00000000	      0.00000000	      0.00000000	      0.00000000	      0.00000000	      0.00000000	      0.00000000	      0.00000000	      0.00000000	      0.00000000	      0.00000000	      0.00000000	      0.00000000
      1.04000000	     -1.94720389	    -10.52489898	     89.78177908	      0.19809990	      0.87486034	      0.18173572	     40.66300450	      2.62851518	      1.89887956	     15.36012273	      0.26808472	     -3.75441827	      0.00000000	      0.00000000	     -8.99642835	      4.46809716	      1.26791458	     19.80927394	      0.34573705	     -5.78359617	      0.00000000	      0.00000000	      6.65438955	     -3.48271916	     -0.83513764	      0.00000000	      0.00000000	      0.00000000	      0.00000000	      0.00000000	      0.00000000	      0.00000000	      0.00000000	      0.00000000	      0.00000000	      0.00000000	      0.00000000	      0.00000000	      0.00000000
      1.05000000	     -1.21596540	    -10.31021715	     89.77961605	      0.19885997	      0.87705343	      0.16114354	     40.15169778	      3.33546018	      1.46247303	     17.11086246	      0.29864089	     -4.89136711	      0.00000000	      0.00000000	     -7.08131566	      3.02503168	     -0.34054937	     24.90308441	      0.43464082	    -10.08617844	      0.00000000	      0.00000000	      6.65113616	     -2.68868161	     -0.47688154	      0.00000000	      0.00000000	      0.00000000	      0.00000000	      0.00000000	      0.00000000	      0.00000000	      0.00000000	      0.00000000	      0.00000000	      0.00000000	      0.00000000	      0.00000000	      0.00000000
      1.06000000	     -0.39692385	    -10.17101698	     89.77994808	      0.19969314	      0.87953481	      0.14087496	     39.52127684	      4.14007175	      1.15601941	     18.56633213	      0.32404363	     -5.19664347	      0.00000000	      0.00000000	     -4.77377297	      1.43301985	     -1.48845575	     30.32945405	      0.52934883	    -14.00312024	      0.00000000	      0.00000000	      6.71010306	     -1.81025537	     -0.08844777	      0.00000000	      0.00000000	      0.00000000	      0.00000000	      0.00000000	      0.00000000	      0.00000000	      0.00000000	      0.00000000	      0.00000000	      0.00000000	      0.00000000	      0.00000000	      0.00000000
      1.07000000	      0.44001804	    -10.07060409	     89.78110057	      0.20044945	      0.88227423	      0.12105442	     38.74138029	      4.96635699	      0.86567463	     19.72479430	      0.34426260	     -4.82810202	     -0.00000000	     -0.00000000	     -2.22269578	     -0.13646714	     -2.06800224	     35.80820163	      0.62497102	    -17.25849915	     -0.00000000	      0.00000000	      6.75645233	     -0.91751623	      0.35204576	      0.00000000	     -0.00000000	      0.00000000	      0.00000000	      0.00000000	     -0.00000000	      0.00000000	      0.00000000	      0.00000000	     -0.00000000	      0.00000000	      0.00000000	      0.00000000	      0.00000000
      1.08000000	      1.29917381	     -9.94515396	     89.78667985	      0.20119963	      0.88533063	      0.10162599	     37.70352179	      5.83181619	      0.55819762	     20.50182371	      0.35782433	     -3.99333505	      0.00000000	      0.00000000	      0.42767704	     -1.63275773	     -2.15297320	     41.12845598	      0.71782697	    -19.44954285	      0.00000000	      0.00000000	      6.72019820	     -0.02063910	      0.79708738	      0.00000000	      0.00000000	      0.00000000	      0.00000000	      0.00000000	      0.00000000	      0.00000000	      0.00000000	      0.00000000	      0.00000000	      0.00000000	      0.00000000	      0.00000000	      0.00000000
      1.09000000	      2.09994632	    -10.11448532	     89.78980403	      0.20191836	      0.88823072	      0.08277845	     36.72317297	      6.70272642	      0.44810284	     20.79538361	      0.36294791	     -2.94960734	      0.00000000	      0.00000000	      3.52578650	     -2.91032161	     -1.77397610	     46.21416334	      0.80658931	    -20.33657419	      0.00000000	      0.00000000	      6.97759074	      0.79057574	      1.25998036	      0.00000000	      0.00000000	      0.00000000	      0.00000000	      0.00000000	      0.00000000	      0.00000000	      0.00000000	      0.00000000	      0.00000000	      0.00000000	      0.00000000	      0.00000000	      0.00000000
      1.10000000	      2.91709170	     -9.95495714	     89.80031432	      0.20262629	      0.89185885	      0.06400876	     35.11775054	      7.60211474	      0.24739899	     20.61772878	      0.35984725	     -1.75211382	      0.00000000	      0.00000000	      6.20841813	     -4.10087024	     -1.23143919	     50.66175980	      0.88421451	    -20.19298048	      0.00000000	      0.00000000	      6.81087007	      1.60602752	      1.68736040	      0.00000000	      0.00000000	      0.00000000	      0.00000000	      0.00000000	      0.00000000	      0.00000000	      0.00000000	      0.00000000	      0.00000000	      0.00000000	      0.00000000	      0.00000000	      0.00000000
      1.11000000	      3.57240940	    -10.05726784	     89.80427899	      0.20329592	      0.89533460	      0.04569717	     33.56178631	      8.43196869	      0.49746059	     19.99478898	      0.34897490	     -0.70033480	      0.00000000	      0.00000000	      9.20617905	     -4.93387995	     -0.43819252	     54.56581482	      0.95235313	    -18.71657003	      0.00000000	      0.00000000	      6.93681991	      2.22437564	      2.22382799	      0.00000000	      0.00000000	      0.00000000	      0.00000000	      0.00000000	      0.00000000	      0.00000000	      0.00000000	      0.00000000	      0.00000000	      0.00000000	      0.00000000	      0.00000000	      0.00000000
